<?xml version="1.0" standalone="no"?>
<!DOCTYPE svg PUBLIC "-//W3C//DTD SVG 20010904//EN"
 "http://www.w3.org/TR/2001/REC-SVG-20010904/DTD/svg10.dtd">
<svg version="1.0" xmlns="http://www.w3.org/2000/svg"
 width="192.000000pt" height="192.000000pt" viewBox="0 0 192.000000 192.000000"
 preserveAspectRatio="xMidYMid meet">

<g transform="translate(0.000000,192.000000) scale(0.100000,-0.100000)"
fill="#000000" stroke="none">
<path d="M361 1544 c-45 -57 -47 -86 -25 -370 7 -88 -2 -119 -50 -163 -35 -33
-35 -79 0 -112 48 -44 57 -75 50 -163 -22 -285 -19 -324 29 -372 21 -20 34
-24 90 -24 l65 0 0 75 c0 67 -2 75 -19 75 -10 0 -30 9 -45 21 -30 24 -32 41
-14 201 12 115 4 170 -32 218 -18 23 -18 25 0 50 35 50 44 101 31 198 -18 143
-15 189 14 217 13 14 33 25 45 25 18 0 20 6 20 75 l0 75 -69 0 c-63 0 -72 -3
-90 -26z"/>
<path d="M1380 1495 c0 -67 2 -75 19 -75 10 0 31 -10 46 -22 l28 -22 -8 -120
c-13 -183 -11 -209 17 -257 l25 -42 -25 -45 c-29 -52 -31 -85 -18 -263 8 -111
8 -117 -13 -138 -11 -11 -32 -21 -46 -21 -24 0 -25 -2 -25 -75 l0 -75 61 0
c75 0 96 11 120 63 22 49 25 141 8 283 -14 117 -8 150 36 201 47 55 47 92 0
138 -44 44 -51 84 -36 201 14 117 14 234 0 271 -22 58 -46 73 -121 73 l-68 0
0 -75z"/>
<path d="M840 1410 c-69 -25 -112 -60 -177 -145 -37 -47 -54 -80 -59 -110 -7
-52 17 -179 46 -236 12 -22 20 -43 18 -45 -3 -2 -22 14 -43 36 -42 43 -73 50
-99 24 -25 -25 -19 -53 24 -101 31 -35 38 -50 34 -71 -8 -37 38 -82 65 -65 14
9 22 8 33 -4 14 -13 13 -20 -10 -60 -19 -34 -25 -61 -26 -107 l-1 -61 301 -3
c234 -2 304 1 312 10 14 17 -1 99 -29 160 -18 38 -20 50 -10 62 10 12 17 13
32 3 18 -10 24 -8 50 21 24 26 28 37 19 47 -9 11 -3 25 29 63 44 51 51 81 25
106 -26 26 -57 19 -99 -24 -21 -22 -40 -38 -43 -36 -2 2 6 22 17 44 24 47 52
163 51 211 -1 45 -20 85 -72 150 -58 73 -103 107 -171 131 -71 25 -146 25
-217 0z m298 -362 c7 -7 12 -26 12 -43 0 -55 -41 -70 -113 -40 -20 8 -59 15
-87 15 -28 0 -67 -7 -87 -15 -43 -18 -85 -19 -101 -3 -16 16 -16 70 0 86 17
17 359 17 376 0z m-421 -224 c5 -14 -66 -94 -82 -94 -31 0 -25 24 16 66 41 42
59 50 66 28z m532 -28 c40 -41 47 -67 18 -65 -18 1 -90 87 -82 99 10 17 19 12
64 -34z m-463 -34 c-4 -3 -14 2 -24 12 -16 18 -16 18 6 6 13 -6 21 -14 18 -18z
m354 13 c-7 -8 -18 -15 -24 -15 -6 0 -2 7 8 15 25 19 32 19 16 0z m-401 -28
c8 -11 6 -18 -8 -31 -16 -15 -19 -15 -31 -1 -10 12 -10 18 0 30 15 19 24 19
39 2z m461 -2 c13 -16 6 -35 -14 -35 -22 0 -37 25 -24 38 16 16 23 15 38 -3z"/>
<path d="M826 1043 c-12 -12 -6 -43 9 -43 8 0 15 9 15 19 0 21 -13 34 -24 24z"/>
<path d="M1056 1043 c-12 -12 -6 -43 9 -43 8 0 15 9 15 19 0 21 -13 34 -24 24z"/>
</g>
</svg>
